<?xml version="1.0" encoding="UTF-8"?>
<svg id="a" data-name="Layer 1" xmlns="http://www.w3.org/2000/svg" width="200" height="200" viewBox="0 0 200 200">
  <g>
    <path d="M177.162,75.769c-1.07,10.683-1.878,21.393-2.135,32.126-1.343,55.96-15.727,80.283-74.138,82.381-16.69,1.23-43.26-1.25-61.33-21.12,.05,.02,.1,.03,.15,.05,3.7,3.77,8.35,6.58,13.5,8.13,16.18,4.9,35.1,7.18,52.32,4.51,20.52-3.18,38.63-13.39,46.84-34.59,.95-2.74,1.73-5.73,2.36-8.94,.22-1.03,.41-2.06,.58-3.1,.11-.62,.21-1.23,.3-1.85,.09-.58,.17-1.17,.25-1.75,.29-2.25,.52-4.51,.69-6.76-.23,2.33-.49,4.59-.79,6.76,.59-4.5,.89-9.04,1.09-13.49,.64-13.99,1.31-28.1,2.15-42.1-.15,2.92-.28,5.81-.39,8.65,.15-2.89,.32-5.77,.49-8.65,.04-.67,.09-1.34,.13-2.01,.02-.39,.05-.77,.07-1.16,.04-.66,.08-1.33,.13-2.01,0-.07,0-.15,.01-.23,.04-.72,.08-1.45,.12-2.19,.09-1.59,.17-3.22,.23-4.88,.07-1.55,.12-3.12,.15-4.71,.02-.26,.02-.52,.02-.78,.02-.64,.03-1.28,.03-1.92,.08-5.66-.07-11.42-.63-16.84-.05-.54-.11-1.08-.18-1.61-.25-2.15-.57-4.24-.98-6.23-.15-.75-.31-1.48-.49-2.2-.11-.48-.23-.95-.36-1.42-.13-.47-.26-.93-.4-1.38-.28-.91-.58-1.79-.9-2.63-.16-.42-.33-.84-.5-1.25l-.27-.6c-.18-.4-.37-.79-.56-1.17-.1-.19-.19-.38-.29-.56-.16-.3-.33-.6-.5-.89-1.1-1.84-2.37-3.43-3.85-4.68-.29-.24-.58-.47-.88-.69-.89-.66-1.87-1.19-2.92-1.61,12.74,.81,23.87,3.29,27.88,13.26,5.565,13.867,4.855,31.633,3.003,50.132Z" fill="#e86477"/>
    <path d="M96.959,149.776c-52.3,12.24-12.26-116.08-34.83-139.46v-.01c7.43,.2,18.58,4.77,21.8,12.73,13.19,32.66-7.72,116.11,13.03,126.74Z" fill="#e86477"/>
    <path d="M92.613,150.85c-.77,.07-1.54,.05-2.33-.02,.78,.07,1.56,.08,2.33,.02Z" fill="#cd535a"/>
    <path d="M156.849,118.126c-.2,4.45-.5,8.99-1.09,13.49,.3-2.17,.56-4.43,.79-6.76,.01-.06,.01-.12,.01-.17,1.12-11.69,1.43-25.26,2.05-40.01,.11-2.84,.24-5.73,.39-8.65-.84,14-1.51,28.11-2.15,42.1Zm-120.27,47.49c.89,1.25,1.89,2.43,2.97,3.53-1.01-1.12-2.01-2.3-2.97-3.53Z" fill="#fc666e"/>
    <path d="M159.989,56.136c0,.64-.01,1.28-.03,1.92,0,.26,0,.52-.02,.78-.03,1.59-.08,3.16-.15,4.71-.06,1.66-.14,3.29-.23,4.88-.04,.74-.08,1.47-.12,2.19-.01,.08-.01,.16-.01,.23-.05,.68-.09,1.35-.13,2.01-.02,.39-.05,.77-.07,1.16-.04,.67-.09,1.34-.13,2.01-.17,2.88-.34,5.76-.49,8.65,.11-2.84,.24-5.73,.39-8.65-.84,14-1.51,28.11-2.15,42.1-.2,4.45-.5,8.99-1.09,13.49,.3-2.17,.56-4.43,.79-6.76-.17,2.25-.4,4.51-.69,6.76-.08,.58-.16,1.17-.25,1.75-.09,.62-.19,1.23-.3,1.85-.17,1.04-.36,2.07-.58,3.1-.63,3.21-1.41,6.2-2.36,8.94-8.21,21.2-26.32,31.41-46.84,34.59-17.22,2.67-36.14,.39-52.32-4.51-5.15-1.55-9.8-4.36-13.5-8.13l-.05-.05s0-.01-.01-.01c-1.01-1.12-2.01-2.3-2.97-3.53-.02-.02-.03-.05-.05-.07l-.01-.01c-.69-.95-1.32-1.95-1.9-2.98-19.39-34.76-15.96-118.33,.53-144.83,2.12-3.42,5.43-5.99,9.31-7.09,4.2-1.2,9.92-1.75,17.57-.33v.01c22.57,23.38-17.47,151.7,34.83,139.46,2.29-.54,4.76-1.34,7.42-2.44,30.62-18.45-17.73-139.85,41.88-134.97,.01,0,.01,.01,.02,.01,1.05,.42,2.03,.95,2.92,1.61,.3,.22,.59,.45,.88,.69,1.48,1.25,2.75,2.84,3.85,4.68,.17,.29,.34,.59,.5,.89,.1,.18,.19,.37,.29,.56,.19,.38,.38,.77,.56,1.17l.27,.6c.17,.41,.34,.83,.5,1.25,.32,.84,.62,1.72,.9,2.63,.14,.45,.27,.91,.4,1.38,.13,.47,.25,.94,.36,1.42,.18,.72,.34,1.45,.49,2.2,.41,1.99,.73,4.08,.98,6.23,.07,.53,.13,1.07,.18,1.61,.56,5.42,.71,11.18,.63,16.84Z" fill="#ff949e"/>
    <path d="M158.999,76.026c-.15,2.92-.28,5.81-.39,8.65-.62,11.15-1.15,22.34-1.66,33.45-.1,2.17-.22,4.36-.39,6.56,0,.05,0,.11-.01,.17-.23,2.33-.49,4.59-.79,6.76,.59-4.5,.89-9.04,1.09-13.49,.64-13.99,1.31-28.1,2.15-42.1Z" fill="#fc666e"/>
    <path d="M92.613,150.85c-.77,.07-1.54,.05-2.33-.02,.78,.07,1.56,.08,2.33,.02Z" fill="#fc666e"/>
  </g>
  <g>
    <path d="M152.552,45.997c.06,1.492-.241,2.99-.991,4.281-3.513,6.05-8.701-1.504-8.699-8.457,.002-7.101-4.096-18.768,2.146-19.141,1.619-.097,3.165,.726,4.124,2.034,4.086,5.57,3.144,14.409,3.419,21.284Z" fill="#fdfbfb"/>
    <path d="M146.885,66.417c-4.913-.592-4.025-9.395,1.113-8.496,4.901,.692,4.111,9.353-1.113,8.496Z" fill="#fdfbfb"/>
  </g>
</svg>